<?xml version="1.0" encoding="utf-8"?>
<!-- Generator: Adobe Illustrator 19.2.1, SVG Export Plug-In . SVG Version: 6.00 Build 0)  -->
<!DOCTYPE svg PUBLIC "-//W3C//DTD SVG 1.1//EN" "http://www.w3.org/Graphics/SVG/1.1/DTD/svg11.dtd">
<svg version="1.1" id="Layer_1" xmlns="http://www.w3.org/2000/svg" xmlns:xlink="http://www.w3.org/1999/xlink" x="0px" y="0px"
	 width="512px" height="512px" viewBox="0 0 512 512" style="enable-background:new 0 0 512 512;" xml:space="preserve">
<style type="text/css">
	.st0{fill-rule:evenodd;clip-rule:evenodd;}
</style>
<path fill="#0089cc" class="st0" d="M255.5,8C118.8,8,8,118.8,8,255.5C8,392.2,118.8,503,255.5,503C392.2,503,503,392.2,503,255.5
	C503,118.8,392.2,8,255.5,8z M264.1,96.2c4.2,8.4,1.4,25.1-22.3,33.5l-30.7-60C211.1,69.7,253,57.2,264.1,96.2z M195.8,460.2
	c-16.7,1.4-37.6,5.6-43.2-58.6c-8.4-13.9-23.7-18.1-39-20.9c-15.3-2.8-18.1-34.8,0-59.9C98.2,304,32.7,246.8,46.6,189.7
	C60.5,145,82.9,87.9,160.9,51.6c30.7,29.3,51.6,46,9.8,68.3c-16.7,9.8-20.9,33.5,0,36.2c0,0,4.2-20.9,16.7-15.3
	c12.6,5.6,41.8,34.9,19.5,36.3c-22.3,1.4-32.1,11.1-41.8,23.7c-9.8,12.6-27.9,44.6-40.4,46c-12.6,1.4-11.2-19.5-22.3-19.5
	c-11.2,0-22.3,0-16.7,34.9c7,19.5,66.9,64.1,200.8,106C287.8,375.1,271.1,453.2,195.8,460.2z M435.6,305.4c0,0-2.8,2.8-11.2,7
	c-8.4,4.2-82.3,26.5-79.5-37.6c5.6-15.3,44.6-96.2-30.7-128.3c8.4-15.3,34.9-19.5,34.9-19.5l-47.4-76.7c0,0,149.2,18.1,164.5,171.5
	c0,23.7-1.4,86.4-15.3,121.3C438.4,316.6,435.6,305.4,435.6,305.4z"/>
</svg>
